<?xml version="1.0" encoding="UTF-8" standalone="no"?>
<!-- Created with Inkscape (http://www.inkscape.org/) -->

<svg
   xmlns:dc="http://purl.org/dc/elements/1.1/"
   xmlns:cc="http://creativecommons.org/ns#"
   xmlns:rdf="http://www.w3.org/1999/02/22-rdf-syntax-ns#"
   xmlns:svg="http://www.w3.org/2000/svg"
   xmlns="http://www.w3.org/2000/svg"
   xmlns:sodipodi="http://sodipodi.sourceforge.net/DTD/sodipodi-0.dtd"
   xmlns:inkscape="http://www.inkscape.org/namespaces/inkscape"
   width="210mm"
   height="297mm"
   viewBox="0 0 744.09448819 1052.3622047"
   id="svg2"
   version="1.1"
   inkscape:version="0.91 r13725"
   sodipodi:docname="logosvg.svg">
  <defs
     id="defs4" />
  <sodipodi:namedview
     id="base"
     pagecolor="#ffffff"
     bordercolor="#666666"
     borderopacity="1.0"
     inkscape:pageopacity="0.0"
     inkscape:pageshadow="2"
     inkscape:zoom="1.4"
     inkscape:cx="370.8241"
     inkscape:cy="996.85553"
     inkscape:document-units="px"
     inkscape:current-layer="layer1"
     showgrid="false"
     inkscape:window-width="1366"
     inkscape:window-height="708"
     inkscape:window-x="0"
     inkscape:window-y="31"
     inkscape:window-maximized="1"
     showguides="true">
    <inkscape:grid
       type="xygrid"
       id="grid3362" />
  </sodipodi:namedview>
  <metadata
     id="metadata7">
    <rdf:RDF>
      <cc:Work
         rdf:about="">
        <dc:format>image/svg+xml</dc:format>
        <dc:type
           rdf:resource="http://purl.org/dc/dcmitype/StillImage" />
        <dc:title></dc:title>
      </cc:Work>
    </rdf:RDF>
  </metadata>
  <g
     inkscape:label="Camada 1"
     inkscape:groupmode="layer"
     id="layer1">
    <g
       id="g4423">
      <g
         id="text3336"
         style="font-style:normal;font-weight:normal;font-size:40px;line-height:125%;font-family:sans-serif;letter-spacing:0px;word-spacing:0px;fill:#000000;fill-opacity:1;stroke:none;stroke-width:1px;stroke-linecap:butt;stroke-linejoin:miter;stroke-opacity:1">
        <path
           id="path3386"
           style="font-style:normal;font-variant:normal;font-weight:normal;font-stretch:normal;font-size:90px;font-family:'Linux Biolinum Capitals';-inkscape-font-specification:'Linux Biolinum Capitals'"
           d="m 191.74525,147.09364 q 0,-10.72265 -0.8789,-16.12793 l 0.0879,-0.26367 q 1.27441,0.26367 4.39453,0.26367 0,0 4.30664,-0.26367 l 0.17578,0.26367 q -0.70312,4.79004 -0.8789,16.12793 l 0,9.14063 q 0,10.45898 0.8789,16.12793 l -0.17578,0.26367 q -1.27441,-0.26367 -4.30664,-0.26367 0,0 -4.39453,0.26367 l -0.0879,-0.26367 q 0.8789,-5.40528 0.8789,-16.12793 l 0,-9.14063 z" />
        <path
           id="path3388"
           style="font-style:normal;font-variant:normal;font-weight:normal;font-stretch:normal;font-size:90px;font-family:'Linux Biolinum Capitals';-inkscape-font-specification:'Linux Biolinum Capitals'"
           d="m 217.23354,130.04286 3.208,0 q 7.73438,15.64453 16.56739,31.86035 l 17.2705,-31.86035 2.90039,0 q 4.30665,37.61719 5.05372,42.49512 -1.01075,-0.17578 -4.17481,-0.17578 -2.3291,0 -3.2959,0.17578 -1.71386,-20.30274 -2.76855,-29.39941 -10.54688,19.29199 -14.98535,29.22363 l -2.24121,0 q -2.19727,-4.65821 -14.72168,-29.17969 -2.59278,23.86231 -2.63672,29.35547 -0.61524,-0.17578 -2.63672,-0.17578 -2.76856,0 -3.51563,0.17578 4.35059,-26.93848 5.97657,-42.49512 z" />
        <path
           id="path3390"
           style="font-style:normal;font-variant:normal;font-weight:normal;font-stretch:normal;font-size:90px;font-family:'Linux Biolinum Capitals';-inkscape-font-specification:'Linux Biolinum Capitals'"
           d="m 308.90346,147.18153 0,5.00977 q 0,10.37109 -3.82324,15.73242 -3.82325,5.31738 -13.97461,5.31738 -2.50489,0 -5.2295,-0.8789 -2.68066,-0.87891 -5.31738,-2.72461 -2.59277,-1.8457 -4.26269,-5.40527 -1.66993,-3.55958 -1.66993,-8.17383 l 0,-8.87696 q 0,-10.81054 -0.8789,-16.21582 l 0.0879,-0.26367 q 1.3623,0.26367 4.48242,0.26367 l 4.39453,-0.26367 0.21973,0.26367 q -0.87891,5.66895 -0.92285,16.21582 l 0,6.98731 q 0,2.90039 0.17578,4.92187 0.17578,2.02149 0.79101,4.17481 0.65918,2.15332 1.75782,3.51562 1.14257,1.36231 3.12011,2.24121 1.97754,0.83497 4.79004,0.83497 3.25196,0 5.53711,-1.01075 2.28516,-1.05468 3.47168,-2.50488 1.23047,-1.4502 1.8457,-3.91113 0.65918,-2.50489 0.79102,-4.35059 0.13184,-1.8457 0.13184,-4.70215 l 0,-6.19629 q 0,-10.81054 -0.87891,-16.21582 l 0.0879,-0.26367 q 2.15332,0.26367 3.03223,0.26367 l 2.98828,-0.26367 0.17578,0.26367 q -0.92285,5.66895 -0.92285,16.21582 z" />
        <path
           id="path3392"
           style="font-style:normal;font-variant:normal;font-weight:normal;font-stretch:normal;font-size:90px;font-family:'Linux Biolinum Capitals';-inkscape-font-specification:'Linux Biolinum Capitals'"
           d="m 353.11244,114.31044 q 3.51563,0 5.66895,-0.26367 l 0.17578,0.26367 q -0.17578,2.50488 -0.17578,3.07617 0,1.27442 0.17578,2.68067 l -0.17578,0.35156 q -12.43653,-1.09863 -24.47754,-1.05469 -0.70313,2.41699 -0.74707,12.96387 l 0,6.9873 q 9.44824,0 20.08301,-0.8789 l 0.26367,0.26367 q -0.26367,1.27441 -0.26367,2.90039 0,1.58203 0.26367,2.85644 l -0.26367,0.26368 q -8.9209,-0.87891 -20.08301,-0.87891 l 0,10.50293 q 0,11.60156 0.92285,18.01758 l -0.17578,0.26367 q -1.53809,-0.26367 -4.61426,-0.26367 l -4.6582,0.26367 -0.0879,-0.26367 q 0.8789,-6.1084 0.8789,-18.01758 l 0,-22.0166 q 0,-11.60156 -0.8789,-18.01758 l 0.17578,-0.26367 q 1.53808,0.26367 4.57031,0.26367 l 23.42285,0 z" />
        <path
           sodipodi:nodetypes="cccsccssccccsccc"
           inkscape:connector-curvature="0"
           id="path3394"
           d="m 398.26953,156.35742 -27.66601,0 c -2.40983,5.36987 -4.84774,10.75634 -7.33985,16.17969 0.55664,-0.11719 1.75782,-0.17578 3.60352,-0.17578 1.43555,0 2.41797,0.0586 2.94531,0.17578 0.90821,-3.39844 2.63672,-8.23243 5.18555,-14.50195 1.25976,-0.0586 2.72461,-0.1016 4.39453,-0.13086 1.66992,-0.0293 3.04687,-0.0449 4.13086,-0.0449 0.79101,0 1.68359,0.0157 2.67968,0.0449 1.0254,0.0293 1.83204,0.0586 2.41797,0.0879 0.61524,0 1.50782,0.0136 2.67969,0.043 2.19727,5.94726 3.82422,10.78124 4.87891,14.50195 0.73242,-0.11719 1.8164,-0.17578 3.25195,-0.17578 3.10547,0 5.02343,0.0586 5.75586,0.17578 -0.9668,-1.9043 -2.46094,-5.28711 -4.48242,-10.15039 -0.84252,-2.05974 -1.67692,-4.15732 -2.43555,-6.02934 z"
           style="font-style:normal;font-variant:normal;font-weight:normal;font-stretch:normal;font-size:90px;font-family:'Linux Biolinum Capitals';-inkscape-font-specification:'Linux Biolinum Capitals'" />
        <path
           id="path3396"
           style="font-style:normal;font-variant:normal;font-weight:normal;font-stretch:normal;font-size:90px;font-family:'Linux Biolinum Capitals';-inkscape-font-specification:'Linux Biolinum Capitals'"
           d="m 414.81166,147.09364 q 0,-10.72265 -0.87891,-16.12793 l 0.0879,-0.26367 q 1.27441,0.26367 4.39453,0.26367 0,0 4.30664,-0.26367 l 0.17578,0.26367 q -0.70313,4.79004 -0.87891,16.12793 l 0,9.14063 q 0,10.45898 0.87891,16.12793 l -0.17578,0.26367 q -1.27442,-0.26367 -4.30664,-0.26367 0,0 -4.39453,0.26367 l -0.0879,-0.26367 q 0.87891,-5.40528 0.87891,-16.12793 l 0,-9.14063 z" />
        <path
           sodipodi:nodetypes="cscccccsccccscccccsccccccc"
           inkscape:connector-curvature="0"
           id="path3398"
           style="font-style:normal;font-variant:normal;font-weight:normal;font-stretch:normal;font-size:90px;font-family:'Linux Biolinum Capitals';-inkscape-font-specification:'Linux Biolinum Capitals';fill:#cd0000;fill-opacity:1"
           d="m 446.32045,135.93153 c -3.36914,0 -6.24023,0.0732 -8.61328,0.21973 -2.37305,0.14649 -3.89648,0.30762 -4.57031,0.4834 l -1.05469,0.26367 -0.17578,-0.26367 c 0.17578,-1.31836 0.17578,-3.20801 0,-5.66895 l 0.17578,-0.17578 c 1.78711,0.11719 3.44238,0.17578 4.96582,0.17578 l 8.98639,0 0.29767,-15.40022 7.64379,0.0316 0.23903,15.36865 8.76085,0 c 1.49414,0 3.13477,-0.0586 4.92188,-0.17578 l 0.17578,0.17578 c -0.17578,2.46094 -0.17578,4.35059 0,5.66895 l -0.17578,0.26367 c -1.99219,-0.67383 -6.72363,-0.99609 -14.19434,-0.9668 l 0,20.21485 c 0,7.03125 0.29297,12.43652 0.87891,16.21582 l -0.17578,0.26367 c -0.90821,-0.17578 -2.37305,-0.26367 -4.39453,-0.26367 l -4.52637,0.26367 -0.0879,-0.26367 c 0.58593,-3.60352 0.89355,-9.00879 0.92285,-16.21582 z" />
        <path
           id="path3400"
           style="font-style:normal;font-variant:normal;font-weight:normal;font-stretch:normal;font-size:90px;font-family:'Linux Biolinum Capitals';-inkscape-font-specification:'Linux Biolinum Capitals'"
           d="m 505.91029,147.09364 q 0,-10.72265 -0.8789,-16.12793 l 0.0879,-0.26367 q 1.27441,0.26367 4.39453,0.26367 0,0 4.30664,-0.26367 l 0.17578,0.26367 q -0.70312,4.79004 -0.87891,16.12793 l 0,9.14063 q 0,10.45898 0.87891,16.12793 l -0.17578,0.26367 q -1.27441,-0.26367 -4.30664,-0.26367 0,0 -4.39453,0.26367 l -0.0879,-0.26367 q 0.8789,-5.40528 0.8789,-16.12793 l 0,-2.76856 -20.78613,0 0,2.76856 q 0,10.45898 0.87891,16.12793 l -0.17578,0.26367 q -1.27442,-0.26367 -4.30664,-0.26367 0,0 -4.39454,0.26367 l -0.0879,-0.26367 q 0.87891,-5.40528 0.87891,-16.12793 l 0,-9.14063 q 0,-10.72265 -0.87891,-16.12793 l 0.0879,-0.26367 q 1.27442,0.26367 4.39454,0.26367 0,0 4.30664,-0.26367 l 0.17578,0.26367 q -0.70313,4.79004 -0.87891,16.12793 l 0,2.68067 20.78613,0 0,-2.68067 z" />
      </g>
      <path
         inkscape:connector-curvature="0"
         id="path3459"
         d="m 162.13513,112.40218 a 17.035717,17.035717 0 0 0 -17.03664,17.03664 17.035717,17.035717 0 0 0 17.03664,17.03495 17.035717,17.035717 0 0 0 11.9004,-4.84977 14.939987,14.939987 0 0 1 -8.93842,2.99008 14.939987,14.939987 0 0 1 -14.94143,-14.93972 14.939987,14.939987 0 0 1 14.94143,-14.94134 14.939987,14.939987 0 0 1 10.60138,4.42261 17.035717,17.035717 0 0 0 -13.56336,-6.75345 z"
         style="opacity:1;fill:#cd0000;fill-opacity:1;stroke-width:0.5;stroke-miterlimit:4;stroke-dasharray:none" />
      <path
         style="opacity:1;fill:#cd0000;fill-opacity:1;stroke-width:0.5;stroke-miterlimit:4;stroke-dasharray:none"
         d="m 160.66184,170.47377 a 17.035717,17.035717 0 0 0 17.03664,-17.03664 17.035717,17.035717 0 0 0 -17.03664,-17.03495 17.035717,17.035717 0 0 0 -11.9004,4.84977 14.939987,14.939987 0 0 1 8.93842,-2.99008 14.939987,14.939987 0 0 1 14.94143,14.93972 14.939987,14.939987 0 0 1 -14.94143,14.94134 14.939987,14.939987 0 0 1 -10.60138,-4.42261 17.035717,17.035717 0 0 0 13.56336,6.75345 z"
         id="path4272"
         inkscape:connector-curvature="0" />
      <g
         id="g4413">
        <path
           style="fill:none;fill-rule:evenodd;stroke:#cd0000;stroke-width:3;stroke-linecap:butt;stroke-linejoin:miter;stroke-miterlimit:4;stroke-dasharray:none;stroke-opacity:1"
           d="m 368.81893,138.49162 31.11608,0 -15.50091,26.84835 z"
           id="path4286"
           inkscape:connector-curvature="0" />
        <path
           inkscape:connector-curvature="0"
           id="path4288"
           d="m 368.81893,156.99793 31.11608,0 -15.50091,-26.84835 z"
           style="fill:none;fill-rule:evenodd;stroke:#cd0000;stroke-width:3;stroke-linecap:butt;stroke-linejoin:miter;stroke-miterlimit:4;stroke-dasharray:none;stroke-opacity:1" />
      </g>
      <g
         id="g4409">
        <path
           inkscape:connector-curvature="0"
           d="m 202.31715,122.38394 a 6.5847244,6.5847244 0 0 1 -13.16932,0 6.5847244,6.5847244 0 1 1 13.16932,0 z"
           style="opacity:1;fill:none;fill-opacity:1;stroke:#cd0000;stroke-width:0.8;stroke-linecap:butt;stroke-miterlimit:4;stroke-dasharray:none;stroke-opacity:1"
           id="path2170" />
        <path
           inkscape:connector-curvature="0"
           d="m 192.33817,117.40916 8.8865,6.78866 -10.98436,0 8.8865,-6.78866 -3.39432,10.98435 -3.39432,-10.98435 z"
           style="fill:none;fill-opacity:1;stroke:#cd0000;stroke-width:0.80000001;stroke-linecap:butt;stroke-miterlimit:4;stroke-dasharray:none;stroke-opacity:1"
           id="path2177" />
      </g>
      <g
         transform="translate(222.50508,-0.10460476)"
         id="g4417">
        <path
           id="path4419"
           style="opacity:1;fill:none;fill-opacity:1;stroke:#cd0000;stroke-width:0.80000001;stroke-linecap:butt;stroke-miterlimit:4;stroke-dasharray:none;stroke-opacity:1"
           d="m 202.31715,122.38394 a 6.5847244,6.5847244 0 0 1 -13.16932,0 6.5847244,6.5847244 0 1 1 13.16932,0 z"
           inkscape:connector-curvature="0" />
        <path
           id="path4421"
           style="fill:none;fill-opacity:1;stroke:#cd0000;stroke-width:0.80000001;stroke-linecap:butt;stroke-miterlimit:4;stroke-dasharray:none;stroke-opacity:1"
           d="m 192.33817,117.40916 8.8865,6.78866 -10.98436,0 8.8865,-6.78866 -3.39432,10.98435 -3.39432,-10.98435 z"
           inkscape:connector-curvature="0" />
      </g>
    </g>
  </g>
</svg>
